<?xml version="1.0" encoding="UTF-8" standalone="no"?>
<!-- Generator: Adobe Illustrator 17.0.0, SVG Export Plug-In . SVG Version: 6.00 Build 0)  -->

<svg
   xmlns:dc="http://purl.org/dc/elements/1.1/"
   xmlns:cc="http://creativecommons.org/ns#"
   xmlns:rdf="http://www.w3.org/1999/02/22-rdf-syntax-ns#"
   xmlns:svg="http://www.w3.org/2000/svg"
   xmlns="http://www.w3.org/2000/svg"
   xmlns:sodipodi="http://sodipodi.sourceforge.net/DTD/sodipodi-0.dtd"
   xmlns:inkscape="http://www.inkscape.org/namespaces/inkscape"
   version="1.1"
   id="Capa_1"
   x="0px"
   y="0px"
   width="1400px"
   height="980px"
   viewBox="0 0 1400 980"
   enable-background="new 0 0 1400 980"
   xml:space="preserve"
   sodipodi:docname="vertigoN-01.svg"
   inkscape:version="0.92.4 (5da689c313, 2019-01-14)"><metadata
   id="metadata223"><rdf:RDF><cc:Work
       rdf:about=""><dc:format>image/svg+xml</dc:format><dc:type
         rdf:resource="http://purl.org/dc/dcmitype/StillImage" /><dc:title></dc:title></cc:Work></rdf:RDF></metadata><defs
   id="defs221" /><sodipodi:namedview
   pagecolor="#ffffff"
   bordercolor="#666666"
   borderopacity="1"
   objecttolerance="10"
   gridtolerance="10"
   guidetolerance="10"
   inkscape:pageopacity="0"
   inkscape:pageshadow="2"
   inkscape:window-width="1920"
   inkscape:window-height="1027"
   id="namedview219"
   showgrid="false"
   inkscape:zoom="0.68113143"
   inkscape:cx="650.51304"
   inkscape:cy="464.90319"
   inkscape:window-x="-8"
   inkscape:window-y="-8"
   inkscape:window-maximized="1"
   inkscape:current-layer="Capa_1" />
<rect
   y="812.574"
   fill="#B6FFDE"
   width="1400"
   height="167.426"
   id="rect2" />
<rect
   fill="#C7B8FF"
   width="1400"
   height="769.076"
   id="rect4" />
<path
   fill="#915BBC"
   d="M1096,647.498c0,6.627-5.373,12-12,12H946.149c-6.627,0-12-5.373-12-12v-204c0-6.627,5.373-12,12-12H1084  c6.627,0,12,5.373,12,12V647.498z"
   id="path6" />
<rect
   x="115.12"
   y="148.108"
   fill="#B8FAFF"
   width="628.469"
   height="385.39"
   id="rect8" />
<path
   fill="#FFFFFF"
   d="M1051.27,217.287c0,0,26.049,0,23.081,17.769c-3.516,21.051-126.288,32.071-126.288,32.071  s79.225-12.013,99.954-23.026C1068.746,233.087,1070.725,227.37,1051.27,217.287z"
   id="path10" />
<rect
   x="115.12"
   y="148.108"
   fill="#FFFFFF"
   width="37.498"
   height="385.39"
   id="rect12" />
<rect
   x="399.708"
   y="148.108"
   fill="#FFFFFF"
   width="59.292"
   height="385.39"
   id="rect14" />
<g
   id="g28">
	<circle
   fill="#915BBC"
   cx="1247.919"
   cy="555.909"
   r="45"
   id="circle16" />
	
		<rect
   x="1214.267"
   y="402.823"
   transform="matrix(-0.7071 0.7071 -0.7071 -0.7071 2398.7004 -103.4094)"
   fill="#915BBC"
   width="13"
   height="84.518"
   id="rect18" />
	<rect
   x="1241.419"
   y="470.368"
   fill="#915BBC"
   width="13"
   height="85.541"
   id="rect20" />
	<circle
   fill="#FFEFB9"
   cx="1168.102"
   cy="428.437"
   r="23.326"
   id="circle22" />
	<path
   fill="#915BBC"
   d="M1200.24,396.936c17.573,17.574,17.574,46.066,0,63.64l-63.64-63.64   C1154.174,379.362,1182.667,379.362,1200.24,396.936z"
   id="path24" />
	
		<rect
   x="1181.117"
   y="378.139"
   transform="matrix(-0.7071 -0.7071 0.7071 -0.7071 1765.3322 1520.3489)"
   fill="#915BBC"
   width="32.847"
   height="32.847"
   id="rect26" />
</g>
<rect
   x="706.09"
   y="148.108"
   fill="#FFFFFF"
   width="37.498"
   height="385.39"
   id="rect30" />
<rect
   x="115.12"
   y="496"
   fill="#FFFFFF"
   width="628.469"
   height="37.498"
   id="rect32" />
<rect
   x="115.12"
   y="148.108"
   fill="#FFFFFF"
   width="628.469"
   height="37.498"
   id="rect34" />
<rect
   x="423.708"
   y="103.108"
   fill="#C7B8FF"
   width="11.292"
   height="475.39"
   id="rect36" />
<path
   fill="#FFEFB9"
   d="M507.667,340.803c0,4.486-3.637,8.123-8.122,8.123h-62.422c-4.486,0-8.123-3.637-8.123-8.123l0,0  c0-4.486,3.637-8.122,8.123-8.122h62.422C504.03,332.68,507.667,336.317,507.667,340.803L507.667,340.803z"
   id="path38" />
<path
   fill="#FFFFFF"
   d="M179.706,248.164h86.596c-1.012-6.25-6.418-11.027-12.954-11.027c-1.417,0-2.779,0.231-4.058,0.646  c0.788-1.614,1.243-3.421,1.243-5.338c0-6.738-5.462-12.2-12.2-12.2c-3.398,0-6.469,1.392-8.681,3.633  c-2.212-2.241-5.283-3.633-8.681-3.633c-5.296,0-9.791,3.381-11.478,8.097c-1.91-0.969-4.065-1.527-6.353-1.527  c-7.775,0-14.077,6.303-14.077,14.077c0,0.85,0.088,1.678,0.232,2.486C185.556,243.858,182.22,245.607,179.706,248.164z"
   id="path40" />
<path
   fill="#FFFFFF"
   d="M503.039,292.641h125.294c-1.465-9.043-9.286-15.955-18.742-15.955c-2.051,0-4.021,0.334-5.872,0.935  c1.14-2.336,1.798-4.95,1.798-7.724c0-9.749-7.903-17.652-17.652-17.652c-4.916,0-9.359,2.013-12.56,5.256  c-3.201-3.243-7.644-5.256-12.56-5.256c-7.662,0-14.166,4.891-16.607,11.715c-2.764-1.402-5.881-2.21-9.193-2.21  c-11.249,0-20.368,9.119-20.368,20.368c0,1.23,0.128,2.428,0.336,3.597C511.503,286.411,506.677,288.94,503.039,292.641z"
   id="path42" />
<path
   fill="#FFFFFF"
   d="M358.333,443.974H233.039c1.465-9.043,9.286-15.955,18.742-15.955c2.051,0,4.021,0.334,5.872,0.935  c-1.14-2.336-1.798-4.95-1.798-7.724c0-9.749,7.903-17.652,17.652-17.652c4.916,0,9.359,2.013,12.56,5.256  c3.201-3.243,7.644-5.256,12.56-5.256c7.663,0,14.166,4.891,16.607,11.715c2.764-1.402,5.881-2.21,9.193-2.21  c11.249,0,20.368,9.119,20.368,20.368c0,1.23-0.128,2.428-0.336,3.597C349.869,437.744,354.695,440.274,358.333,443.974z"
   id="path44" />
<rect
   x="435"
   y="555.909"
   fill="#B677DE"
   width="904.058"
   height="45"
   id="rect46" />
<rect
   x="524.047"
   y="600.909"
   fill="#915BBC"
   width="147.544"
   height="153.169"
   id="rect48" />
<g
   id="g58">
	<rect
   x="499.299"
   y="600.909"
   fill="#B677DE"
   width="49.498"
   height="67.673"
   id="rect50" />
	<rect
   x="512.798"
   y="626.584"
   fill="#B677DE"
   width="22.499"
   height="185.991"
   id="rect52" />
	<rect
   x="1225.262"
   y="600.909"
   fill="#B677DE"
   width="49.498"
   height="67.673"
   id="rect54" />
	<rect
   x="1238.762"
   y="626.584"
   fill="#B677DE"
   width="22.499"
   height="185.991"
   id="rect56" />
</g>
<path
   fill="#B677DE"
   d="M1024.333,759.906c0,5.113-4.145,9.259-9.259,9.259l0,0c-5.113,0-9.259-4.145-9.259-9.259v-73.483  c0-5.113,4.145-9.259,9.259-9.259l0,0c5.113,0,9.259,4.145,9.259,9.259V759.906z"
   id="path60" />
<path
   fill="#915BBC"
   d="M1129.069,683.58c0,6.627-5.373,12-12,12H913.08c-6.627,0-12-5.373-12-12v-29.997c0-6.627,5.373-12,12-12  h203.989c6.627,0,12,5.373,12,12V683.58z"
   id="path62" />
<path
   fill="#915BBC"
   d="M1054.333,769.164c0,5.155-4.179,9.333-9.333,9.333h-59.851c-5.155,0-9.333-4.179-9.333-9.333l0,0  c0-5.155,4.179-9.333,9.333-9.333H1045C1050.155,759.831,1054.333,764.01,1054.333,769.164L1054.333,769.164z"
   id="path64" />
<circle
   fill="#B677DE"
   cx="975.816"
   cy="796.748"
   r="15.826"
   id="circle66" />
<circle
   fill="#B677DE"
   cx="1015.075"
   cy="796.748"
   r="15.826"
   id="circle68" />
<circle
   fill="#B677DE"
   cx="1054.333"
   cy="796.748"
   r="15.826"
   id="circle70" />
<rect
   x="50.071"
   y="655.831"
   fill="#B677DE"
   width="155.596"
   height="21.662"
   id="rect72" />
<polygon
   fill="#915BBC"
   points="173.706,812.574 82.032,812.574 62.032,677.493 193.706,677.493 "
   id="polygon74" />
<g
   id="g86">
	<polyline
   fill="#B6FFDE"
   points="86.623,600.909 135,571.998 163.716,604.638 146.618,655.831 100,655.831  "
   id="polyline76" />
	<path
   fill="#92FFCB"
   d="M93.999,580.031c0,0-21.82-25.346,9.599-84.776c0,0,36.618,34.718,18.578,93.434L93.999,580.031z"
   id="path78" />
	<path
   fill="#B6FFDE"
   d="M81,655.831c0,0-45-28.333-25-133.333c0,0,71.869,35.667,71.869,133.333H81z"
   id="path80" />
	<path
   fill="#B6FFDE"
   d="M153.36,594.359c0,0,28.854-31.949-9.76-109.387c0,0-48.184,43.556-26.764,119.666L153.36,594.359z"
   id="path82" />
	<path
   fill="#92FFCB"
   d="M174.738,655.831c0,0,45-28.333,25-133.333c0,0-71.869,35.667-71.869,133.333H174.738z"
   id="path84" />
</g>
<g
   id="g152">
	<circle
   fill="#FFFFFF"
   cx="979.158"
   cy="423.762"
   r="75.047"
   id="circle88" />
	<g
   id="g94">
		<polygon
   fill="#FFFFFF"
   points="840.761,416.146 801.881,396.522 861.096,308.776 885.122,321.675   "
   id="polygon90" />
		<polygon
   fill="#FFFFFF"
   points="913.88,386.718 923.691,479.553 801.881,396.522 822.914,365.354   "
   id="polygon92" />
	</g>
	<rect
   x="904.111"
   y="423.762"
   fill="#FFFFFF"
   width="149.903"
   height="132.146"
   id="rect96" />
	<polyline
   fill="#915BBC"
   points="950.066,425.54 964.024,439.498 984.969,440.767 993.419,422.454 972.57,408.833  "
   id="polyline98" />
	<circle
   fill="#FFEFB9"
   cx="1036.677"
   cy="339.071"
   r="24.386"
   id="circle100" />
	<circle
   fill="#FFE499"
   cx="1036.677"
   cy="339.071"
   r="15.737"
   id="circle102" />
	<g
   id="g108">
		<polygon
   fill="#FFFFFF"
   points="1088.96,416.146 1127.84,396.522 1068.625,308.776 1044.599,321.675   "
   id="polygon104" />
		<polygon
   fill="#FFFFFF"
   points="1033.046,371.537 1006.03,479.553 1127.84,396.522 1106.807,365.354   "
   id="polygon106" />
	</g>
	<polyline
   fill="#EDEDED"
   points="934.252,386.716 934.252,438.652 971.581,420.137 1008.75,438.652 1010.888,380.653  "
   id="polyline110" />
	<circle
   fill="#FFEFB9"
   cx="910.805"
   cy="339.071"
   r="24.386"
   id="circle112" />
	<rect
   x="905.432"
   y="288.892"
   fill="#FFEFB9"
   width="131.244"
   height="65.622"
   id="rect114" />
	<circle
   fill="#FFEFB9"
   cx="971.055"
   cy="354.514"
   r="65.622"
   id="circle116" />
	<path
   fill="#FFA233"
   d="M905.432,302.988l-13.876,2.576l3.68-12.514h-8.818c0,0,0.501-18.77,19.013-26.131l-11.667-6.257   c0,0,36.437-22.451,85.755-8.465v-6.625c0,0,29.106,0.736,41.42,16.562l13.419,0.368c0,0-4.049,5.521-4.049,7.361   c0,0,17.518,10.673,6.367,33.124v8.833l-7.839-7.729c0,0-10.305,6.993-33.124,2.944l1.472-4.049c0,0-20.611,2.208-29.444,8.833   c0,0-2.208-8.097,0-13.25c0,0-27.603,12.514-46.374,17.666c0,0-2.944-9.569,1.104-13.25l-17.04,8.649V302.988z"
   id="path118" />
	<path
   fill="#EA871B"
   d="M914.765,312.68c0,0,26.355-13.863,28.073-16.807c0,0,6.993,4.929,6.87,16.328l-41.712,8.577   C907.996,320.777,909.784,315.343,914.765,312.68z"
   id="path120" />
	<path
   fill="#EA871B"
   d="M1014.102,312.68c0,0-26.355-13.863-28.073-16.807c0,0-6.993,4.929-6.87,16.328l41.712,8.577   C1020.872,320.777,1019.084,315.343,1014.102,312.68z"
   id="path122" />
	<rect
   x="909.714"
   y="343.11"
   fill="#FFEFB9"
   width="50.79"
   height="12.876"
   id="rect124" />
	<rect
   x="969.582"
   y="343.11"
   fill="#FFEFB9"
   width="50.79"
   height="12.876"
   id="rect126" />
	<g
   id="g134">
		<polygon
   fill="#918157"
   points="949.951,327.435 916.095,327.312 917.075,321.698 949.951,327.435   "
   id="polygon128" />
		<polygon
   fill="#918157"
   points="949.951,327.435 928.546,337.075 927.553,333.25 949.951,327.435   "
   id="polygon130" />
		<polygon
   fill="#918157"
   points="933.023,329.6 917.995,333.438 917.784,330.835 933.023,329.6   "
   id="polygon132" />
	</g>
	<g
   id="g142">
		<polygon
   fill="#918157"
   points="979.158,327.435 1013.014,327.312 1012.034,321.698 979.158,327.435   "
   id="polygon136" />
		<polygon
   fill="#918157"
   points="979.158,327.435 1000.563,337.075 1001.556,333.25 979.158,327.435   "
   id="polygon138" />
		<polygon
   fill="#918157"
   points="996.086,329.6 1011.114,333.438 1011.325,330.835 996.086,329.6   "
   id="polygon140" />
	</g>
	<circle
   fill="#EA871B"
   cx="984.969"
   cy="377.244"
   r="18.737"
   id="circle144" />
	<path
   fill="#FFEFB9"
   d="M861.096,308.776c0,0-10.847-16.857-3.234-25.808s23.489,21.184,28.557,24.039s9.192-1.854,10.778,1.769   c1.586,3.623-9.529,15.659-12.854,14.558"
   id="path146" />
	<path
   fill="#FFEFB9"
   d="M1046.078,321.675c0,0-10.844-8.512-5.356-16.416c5.488-7.904,9.774,5.946,15.302-0.575   c5.528-6.521,8.356-28.34,19.66-25.068c11.304,3.272,1.585,20.916-7.059,29.16"
   id="path148" />
	<polygon
   fill="#B677DE"
   points="990.36,534.088 988.63,535.448 986.1,537.438 975.87,545.498 954.93,531.238 955.44,526.088    956.48,515.608 957.11,509.228 958.85,491.668 959.42,485.938 961.85,461.418 962.28,457.058 963.48,444.938 964.02,439.498    984.97,440.928 986,458.698 986.32,464.288 987.35,482.018 987.94,492.318 989.05,511.428 989.39,517.398  "
   id="polygon150" />
</g>
<g
   id="g162">
	<rect
   x="582.429"
   y="358.326"
   fill="#B677DE"
   width="259.82"
   height="156.422"
   id="rect154" />
	<rect
   x="576.18"
   y="358.326"
   fill="#915BBC"
   width="259.82"
   height="156.422"
   id="rect156" />
	<rect
   x="678.18"
   y="428.437"
   fill="#B677DE"
   width="55.82"
   height="110.061"
   id="rect158" />
	<rect
   x="644.18"
   y="538.498"
   fill="#915BBC"
   width="123.82"
   height="17.411"
   id="rect160" />
</g>
<polyline
   fill="#74499E"
   points="897.351,600.909 815,634.745 810,778.498 855.152,773.498 887.029,666.662 941,650.498   910.805,686.498 925.404,789.498 975.816,780.921 979.158,690.498 1054.333,641.583 1054.333,600.909 "
   id="polyline164" />
<polyline
   fill="#74499E"
   points="814.994,777.945 774,801.998 774,812.574 852.5,812.574 852.5,773.792 "
   id="polyline166" />
<polyline
   fill="#74499E"
   points="933.911,777.945 892.917,801.998 892.917,812.574 971.417,812.574 971.417,773.792 "
   id="polyline168" />
<polygon
   fill="#915BBC"
   points="988.63,535.448 986.1,537.438 955.44,526.088 956.48,515.608 "
   id="polygon170" />
<polygon
   fill="#915BBC"
   points="987.94,492.318 959.42,485.938 961.85,461.418 987.35,482.018 "
   id="polygon172" />
<polygon
   fill="#915BBC"
   points="989.39,517.398 957.11,509.228 958.85,491.668 989.05,511.428 "
   id="polygon174" />
<polygon
   fill="#915BBC"
   points="986.32,464.288 962.28,457.058 963.48,444.938 986,458.698 "
   id="polygon176" />
<circle
   fill="#FFFFFF"
   cx="1221.711"
   cy="201.206"
   r="95.047"
   id="circle178" />
<circle
   fill="#B6FFDE"
   cx="1221.711"
   cy="201.206"
   r="75.584"
   id="circle180" />
<rect
   x="1218.421"
   y="110.413"
   fill="#FFFFFF"
   width="6.579"
   height="30.418"
   id="rect182" />
<rect
   x="1218.421"
   y="261.581"
   fill="#FFFFFF"
   width="6.579"
   height="30.418"
   id="rect184" />
<rect
   x="1271.867"
   y="132.551"
   transform="matrix(0.7071 0.7071 -0.7071 0.7071 477.967 -858.394)"
   fill="#FFFFFF"
   width="6.579"
   height="30.418"
   id="rect186" />
<rect
   x="1164.975"
   y="239.443"
   transform="matrix(0.7071 0.7071 -0.7071 0.7071 522.2432 -751.502)"
   fill="#FFFFFF"
   width="6.579"
   height="30.418"
   id="rect188" />
<rect
   x="1282.086"
   y="197.917"
   fill="#FFFFFF"
   width="30.418"
   height="6.579"
   id="rect190" />
<rect
   x="1130.917"
   y="197.917"
   fill="#FFFFFF"
   width="30.418"
   height="6.579"
   id="rect192" />
<rect
   x="1271.867"
   y="239.443"
   transform="matrix(-0.7071 0.7071 -0.7071 -0.7071 2356.895 -466.9532)"
   fill="#FFFFFF"
   width="6.579"
   height="30.418"
   id="rect194" />
<rect
   x="1164.975"
   y="132.551"
   transform="matrix(-0.7071 0.7071 -0.7071 -0.7071 2098.8347 -573.8454)"
   fill="#FFFFFF"
   width="6.579"
   height="30.418"
   id="rect196" />
<polygon
   fill="#FFFFFF"
   points="1221.711,152.498 1221.711,201.206 1186.667,237.164 1228.333,201.206 "
   id="polygon198" />
<path
   fill="#FFFFFF"
   d="M900.5,197.917c0,0-39.5,0-35,31.581c5.331,37.414,191.5,57,191.5,57s-120.135-21.35-151.568-40.925  S871,215.836,900.5,197.917z"
   id="path200" />
<polyline
   fill="#FFEFB9"
   points="897.351,215.998 900.5,204.748 905.432,215.998 913.75,215.998 907.996,221.248 913.75,230.748   901.75,223.498 893.25,229.498 896,219.998 889.25,213.748 "
   id="polyline202" />
<polyline
   fill="#FFEFB9"
   points="1091.851,234.248 1095,222.998 1099.932,234.248 1108.25,234.248 1102.496,239.498   1108.25,248.998 1096.25,241.748 1087.75,247.748 1090.5,238.248 1083.75,231.998 "
   id="polyline204" />
<polyline
   fill="#FFEFB9"
   points="872.948,261.705 874.22,257.161 876.212,261.705 879.571,261.705 877.247,263.825 879.571,267.661   874.724,264.733 871.292,267.156 872.402,263.32 869.676,260.796 "
   id="polyline206" />
<polyline
   fill="#FFEFB9"
   points="967.907,224.035 969.179,219.492 971.171,224.035 974.53,224.035 972.206,226.156 974.53,229.992   969.683,227.064 966.251,229.487 967.361,225.651 964.635,223.127 "
   id="polyline208" />
<polyline
   fill="#FFEFB9"
   points="1042.923,230.041 1044.195,225.498 1046.187,230.041 1049.546,230.041 1047.222,232.161   1049.546,235.998 1044.699,233.07 1041.267,235.493 1042.377,231.656 1039.651,229.132 "
   id="polyline210" />
<polyline
   fill="#FFEFB9"
   points="853.333,212.946 859.752,211.83 855.274,217.014 857.271,221.201 853.247,219.565 849.846,224.742   850.614,216.961 845.553,214.123 850.995,213.226 852.521,208.328 "
   id="polyline212" />
<polyline
   fill="#FFEFB9"
   points="1064.78,200.906 1071.199,199.79 1066.72,204.974 1068.718,209.161 1064.693,207.525   1061.293,212.703 1062.061,204.922 1057,202.084 1062.442,201.187 1063.968,196.289 "
   id="polyline214" />
<polyline
   fill="#FFEFB9"
   points="1050.581,267.488 1057,266.372 1052.521,271.556 1054.519,275.742 1050.494,274.107   1047.094,279.284 1047.862,271.503 1042.801,268.665 1048.243,267.768 1049.769,262.87 "
   id="polyline216" />
</svg>